Coordinates
version=1
nRows=7
nColumns=42
inDegrees=yes

Units are S.I. units (second, meters, Newtons, ...)
If the header above contains a line with 'inDegrees', this indicates whether rotational values are in degrees (yes) or radians (no).

endheader
time	pelvis_tilt	pelvis_list	pelvis_rotation	pelvis_tx	pelvis_ty	pelvis_tz	hip_flexion_r	hip_adduction_r	hip_rotation_r	knee_angle_r	knee_adduction_r	knee_angle_r_beta	ankle_angle_r	subtalar_angle_r	mtp_angle_r	hip_flexion_l	hip_adduction_l	hip_rotation_l	knee_angle_l	knee_adduction_l	knee_angle_l_beta	ankle_angle_l	subtalar_angle_l	mtp_angle_l	lumbar_extension	lumbar_bending	lumbar_rotation	arm_flex_r	arm_add_r	arm_rot_r	elbow_flex_r	pro_sup_r	wrist_flex_r	wrist_dev_r	arm_flex_l	arm_add_l	arm_rot_l	elbow_flex_l	pro_sup_l	wrist_flex_l	wrist_dev_l
      1.20000000	     -2.22123925	      0.16047543	     -6.36441920	      0.00091068	      0.84495745	     -0.35006413	    -14.16845945	     -2.90318998	      4.72588161	     17.00724038	      9.86328778	      0.29683234	      6.57254574	     -1.46798948	     -7.54544793	     23.21457478	     -4.97349936	     -8.34736489	     11.56733181	     10.18208825	      0.20188803	      6.57548709	     -3.66677472	     -7.54544793	     -4.15353729	     -2.04576259	     11.81500615	     12.37705065	    -19.80826556	     11.44826474	     41.46065037	     90.00000001	      0.00000000	      0.00000000	     -7.68872293	    -11.18088732	    -22.43175159	     34.09857277	     90.00000001	      0.00000000	      0.00000000
      1.21000000	     -2.19511516	      0.61595653	     -6.36287188	      0.01396666	      0.84544156	     -0.35078884	    -13.50529570	     -3.61862907	      4.36869043	     19.83144033	     10.13359109	      0.34612393	      4.62732215	     -2.63536473	     -7.54411566	     22.78148942	     -4.24890352	     -7.70127796	     12.30057869	     10.17912093	      0.21468560	      6.16715318	     -4.23497713	     -7.54411566	     -4.01543193	     -2.61952824	     11.76297665	     11.96526646	    -19.56878042	     11.06393441	     41.34293822	     90.00000001	      0.00000000	      0.00000000	     -7.70223412	    -11.35889432	    -22.55895576	     33.89298947	     90.00000001	      0.00000000	      0.00000000
      1.22000000	     -2.28997101	      1.05098739	     -6.28348502	      0.02687036	      0.84596949	     -0.35163831	    -12.48809423	     -4.30035627	      3.87031800	     23.02110848	     10.40096330	      0.40179414	      2.52643889	     -3.81338055	     -7.54032366	     22.33730831	     -3.51483435	     -6.28322121	     12.68728225	     10.32528384	      0.22143485	      5.15780987	     -6.34261157	     -7.54032366	     -3.77106432	     -3.14872503	     11.64061192	     11.50634532	    -19.29982129	     10.56831300	     41.13758299	     90.00000001	      0.00000000	      0.00000000	     -7.66477539	    -11.53326431	    -22.64671779	     33.67917599	     90.00000001	      0.00000000	      0.00000000
      1.23000000	     -1.86545229	      1.25559917	     -6.13972564	      0.03995319	      0.84718609	     -0.35250192	    -12.15996145	     -4.73501610	      3.84264853	     25.83378420	     10.70842330	      0.45088459	      0.42844101	     -4.45801403	     -7.53972001	     21.40805553	     -3.10105699	     -5.54072132	     13.48320741	     10.60675136	      0.23532636	      5.17724565	     -6.27367754	     -7.53972001	     -4.18539636	     -3.46667878	     11.31002809	     11.18825288	    -19.13751400	     10.38792253	     41.02547433	     90.00000001	      0.00000000	      0.00000000	     -7.64377624	    -11.65323034	    -22.61327328	     33.64010110	     90.00000001	      0.00000000	      0.00000000
      1.24000000	     -2.17367673	      2.02178630	     -6.06853503	      0.05309161	      0.84760428	     -0.35347818	    -10.37125710	     -5.74995617	      2.53128489	     29.93876925	     10.52533341	      0.52253010	     -2.44053893	     -6.84559973	     -7.53781687	     21.11206315	     -1.99423157	     -4.74955588	     13.77117371	     10.48473714	      0.24035232	      4.47177898	     -7.54399219	     -7.53781687	     -3.58648846	     -4.32540206	     11.18338443	     10.53703283	    -18.76230752	      9.88248945	     40.68827121	     90.00000001	      0.00000000	      0.00000000	     -7.63999546	    -11.91942032	    -22.60145200	     33.44726985	     90.00000001	      0.00000000	      0.00000000
      1.25000000	     -2.04905890	      2.51033966	     -5.94738928	      0.06615680	      0.84861872	     -0.35438268	     -9.15523700	     -6.42312604	      1.67563583	     33.62549346	     10.24390185	      0.58687557	     -5.08792944	     -8.46705564	     -7.53646729	     20.26368994	     -1.28520326	     -3.85392866	     14.00489437	     10.72177258	      0.24443152	      4.17407082	     -8.31488034	     -7.53646729	     -3.57839238	     -4.90684046	     10.87391804	     10.05059102	    -18.49708889	      9.57930217	     40.41119653	     90.00000001	      0.00000000	      0.00000000	     -7.60440063	    -12.10706964	    -22.53198035	     33.35312596	     90.00000001	      0.00000000	      0.00000000
      1.26000000	     -2.08229406	      3.02467864	     -5.75941041	      0.07884635	      0.84957680	     -0.35538912	     -7.59850282	     -7.10505700	      1.02588100	     37.39136984	     10.00712402	      0.65260252	     -7.52860933	    -10.47633946	     -7.53307662	     19.42167369	     -0.53408266	     -2.37846060	     13.74032525	     11.05297291	      0.23981392	      3.32725177	    -10.53951154	     -7.53307662	     -3.45306080	     -5.50010787	     10.51812645	      9.56447472	    -18.19342595	      9.18275480	     40.02914661	     90.00000001	      0.00000000	      0.00000000	     -7.48068644	    -12.31358277	    -22.41370684	     33.25409810	     90.00000001	      0.00000000	      0.00000000
